<?xml version="1.0" encoding="iso-8859-1"?>
<!-- Generator: Adobe Illustrator 19.0.0, SVG Export Plug-In . SVG Version: 6.00 Build 0)  -->
<svg version="1.1" id="Capa_1" xmlns="http://www.w3.org/2000/svg" xmlns:xlink="http://www.w3.org/1999/xlink" x="0px" y="0px"
	 viewBox="0 0 512.001 512.001" style="enable-background:new 0 0 512.001 512.001;" xml:space="preserve">
<path style="fill:#EE4A4D;" d="M430.762,64.322v58.196H502V64.322c0-14.167-11.484-25.651-25.651-25.651h-19.936
	C442.246,38.671,430.762,50.155,430.762,64.322z"/>
<polygon style="fill:#FCD0AC;" points="431.762,420.733 466.381,473.329 501,420.733 "/>
<rect x="430.76" y="122.52" style="fill:#FF9B4B;" width="71.24" height="298.21"/>
<path d="M476.349,28.671h-19.936c-19.658,0-35.651,15.993-35.651,35.651l0,0v356.411c0,3.506,1.807,6.585,4.538,8.37l32.728,49.724
	c1.85,2.81,4.989,4.502,8.353,4.502c3.364,0,6.503-1.692,8.353-4.502l32.729-49.724c2.73-1.785,4.538-4.865,4.538-8.37V64.322l0,0
	C512,44.664,496.007,28.671,476.349,28.671z M440.762,132.518h15.619v213.26c0,5.523,4.477,10,10,10s10-4.477,10-10v-213.26H492
	v278.215h-51.238V132.518z M440.762,64.322c0-8.63,7.021-15.651,15.651-15.651h19.936c8.63,0,15.651,7.021,15.651,15.651v48.196
	h-51.238V64.322z M466.381,455.141l-16.065-24.408h32.13L466.381,455.141z"/>
<path d="M466.38,388.75c-0.65,0-1.31-0.07-1.95-0.2c-0.64-0.12-1.27-0.32-1.87-0.57c-0.61-0.25-1.19-0.56-1.73-0.92
	c-0.55-0.36-1.06-0.78-1.52-1.24s-0.88-0.97-1.24-1.52c-0.36-0.54-0.67-1.12-0.92-1.73c-0.25-0.6-0.44-1.23-0.57-1.87
	c-0.13-0.64-0.2-1.3-0.2-1.95c0-0.65,0.07-1.31,0.2-1.95s0.32-1.27,0.57-1.87c0.25-0.61,0.56-1.19,0.92-1.73
	c0.36-0.55,0.78-1.06,1.24-1.52s0.97-0.88,1.52-1.25c0.539-0.36,1.12-0.66,1.73-0.91c0.6-0.25,1.23-0.45,1.87-0.57
	c1.29-0.26,2.62-0.26,3.9,0c0.64,0.12,1.27,0.32,1.88,0.57c0.6,0.25,1.18,0.55,1.72,0.91c0.55,0.37,1.06,0.79,1.52,1.25
	s0.88,0.97,1.25,1.52c0.36,0.54,0.66,1.12,0.92,1.73c0.25,0.6,0.44,1.23,0.57,1.87c0.13,0.64,0.19,1.3,0.19,1.95
	c0,0.65-0.06,1.31-0.19,1.95s-0.32,1.27-0.57,1.87c-0.26,0.61-0.56,1.19-0.92,1.73c-0.37,0.55-0.79,1.06-1.25,1.52
	s-0.97,0.88-1.52,1.24c-0.54,0.36-1.12,0.67-1.72,0.92c-0.61,0.25-1.24,0.45-1.88,0.57C467.69,388.68,467.03,388.75,466.38,388.75z"
	/>
<rect x="10" y="39.01" style="fill:#FCD0AC;" width="343" height="433.05"/>
<rect x="199.54" y="312.78" style="fill:#7AEAE7;" width="114.3" height="62.61"/>
<path d="M313.832,385.395H199.537c-5.523,0-10-4.477-10-10v-62.609c0-5.523,4.477-10,10-10h114.296c5.523,0,10,4.477,10,10v62.609
	C323.832,380.917,319.355,385.395,313.832,385.395z M209.537,365.395h94.296v-42.609h-94.296L209.537,365.395L209.537,365.395z"/>
<rect x="199.54" y="408.21" style="fill:#69B0CC;" width="114.3" height="63.852"/>
<polygon style="fill:#947C6B;" points="81.421,304.69 10,371.352 10,429.348 10,472.066 152.841,472.066 152.841,429.348 
	152.841,371.352 "/>
<path style="fill:#FF9B4B;" d="M105.301,472.066H57.54v-41.213c0-13.189,10.692-23.881,23.881-23.881l0,0
	c13.189,0,23.881,10.692,23.881,23.881L105.301,472.066L105.301,472.066z"/>
<path d="M353,29.012H10c-5.523,0-10,4.477-10,10v433.054v-0.001v0.001c0,5.523,4.477,10,10,10l0,0l0,0h343c5.523,0,10-4.477,10-10
	V39.012C363,33.489,358.523,29.012,353,29.012z M95.301,462.066H67.54v-31.213c0-7.654,6.227-13.881,13.881-13.881
	s13.881,6.227,13.881,13.881L95.301,462.066L95.301,462.066z M81.42,318.37l61.42,57.328v86.368H115.3v-31.213
	c0-18.682-15.199-33.881-33.881-33.881S47.54,412.171,47.54,430.853v31.213H20v-86.369L81.42,318.37z M209.537,462.066v-43.851
	h94.296v43.851H209.537z M343,462.066h-19.168v-53.852c0-5.523-4.477-10-10-10H199.537c-5.523,0-10,4.477-10,10v53.852h-26.696
	V393.02c0.977,0.307,1.987,0.468,2.999,0.468c2.675,0,5.343-1.067,7.313-3.177c3.768-4.038,3.55-10.365-0.487-14.134L88.244,297.38
	c-0.246-0.23-0.501-0.443-0.763-0.644c-0.1-0.077-0.206-0.142-0.308-0.214c-0.165-0.116-0.328-0.235-0.498-0.34
	c-0.129-0.08-0.262-0.147-0.394-0.221c-0.149-0.083-0.297-0.17-0.45-0.245c-0.144-0.071-0.291-0.13-0.437-0.193
	c-0.146-0.063-0.291-0.13-0.44-0.186c-0.152-0.057-0.306-0.104-0.46-0.154c-0.147-0.047-0.294-0.097-0.442-0.138
	c-0.156-0.042-0.313-0.075-0.47-0.11c-0.151-0.033-0.301-0.068-0.453-0.094c-0.156-0.027-0.313-0.045-0.47-0.065
	c-0.155-0.019-0.311-0.039-0.467-0.051c-0.154-0.012-0.309-0.016-0.463-0.021c-0.16-0.005-0.319-0.009-0.479-0.006
	c-0.152,0.003-0.304,0.011-0.456,0.021c-0.161,0.01-0.322,0.022-0.483,0.04c-0.151,0.017-0.301,0.039-0.451,0.062
	c-0.16,0.025-0.32,0.053-0.479,0.086c-0.149,0.031-0.297,0.066-0.445,0.104c-0.157,0.04-0.312,0.083-0.467,0.131
	c-0.148,0.046-0.295,0.095-0.441,0.147c-0.15,0.054-0.298,0.112-0.446,0.174c-0.147,0.061-0.294,0.125-0.439,0.194
	c-0.141,0.067-0.281,0.139-0.419,0.213c-0.146,0.077-0.29,0.157-0.432,0.242c-0.133,0.08-0.264,0.165-0.394,0.251
	c-0.14,0.093-0.279,0.187-0.416,0.288c-0.128,0.095-0.253,0.196-0.378,0.298c-0.129,0.105-0.257,0.211-0.382,0.323
	c-0.041,0.037-0.085,0.069-0.126,0.107L20,348.339V49.012h323V462.066z"/>
<rect x="86" y="84.78" style="fill:#EE4A4D;" width="190.99" height="62.61"/>
<path d="M276.995,157.388H86.005c-5.523,0-10-4.477-10-10v-62.61c0-5.523,4.477-10,10-10h190.99c5.523,0,10,4.477,10,10v62.609
	C286.995,152.911,282.518,157.388,276.995,157.388z M96.005,137.388h170.99v-42.61H96.005V137.388z"/>
<path d="M281.3,216.066H47.65c-5.523,0-10-4.477-10-10s4.477-10,10-10H281.3c5.523,0,10,4.477,10,10
	C291.3,211.589,286.823,216.066,281.3,216.066z"/>
<path d="M314.3,216.07c-0.65,0-1.31-0.07-1.95-0.2c-0.64-0.13-1.27-0.32-1.87-0.57c-0.61-0.25-1.19-0.56-1.73-0.92
	c-0.55-0.36-1.06-0.78-1.52-1.24s-0.88-0.97-1.24-1.52c-0.36-0.54-0.67-1.13-0.92-1.73c-0.25-0.6-0.45-1.23-0.57-1.87
	c-0.13-0.64-0.2-1.3-0.2-1.95c0-0.66,0.07-1.31,0.2-1.96c0.12-0.64,0.32-1.27,0.57-1.87s0.56-1.18,0.92-1.72
	c0.36-0.55,0.78-1.06,1.24-1.52c0.46-0.47,0.97-0.88,1.52-1.25c0.54-0.36,1.12-0.67,1.73-0.92c0.6-0.25,1.23-0.44,1.87-0.57
	c1.29-0.26,2.61-0.26,3.9,0c0.64,0.13,1.27,0.32,1.87,0.57c0.61,0.25,1.19,0.56,1.73,0.92c0.55,0.37,1.06,0.78,1.52,1.25
	c0.461,0.46,0.88,0.97,1.24,1.52c0.36,0.54,0.67,1.12,0.92,1.72s0.45,1.23,0.57,1.87c0.13,0.65,0.2,1.3,0.2,1.96
	c0,0.65-0.07,1.31-0.2,1.95c-0.12,0.64-0.32,1.27-0.57,1.87c-0.25,0.6-0.56,1.19-0.92,1.73c-0.36,0.55-0.78,1.06-1.24,1.52
	s-0.97,0.88-1.52,1.24c-0.54,0.36-1.12,0.67-1.73,0.92c-0.6,0.25-1.23,0.44-1.87,0.57C315.61,216,314.95,216.07,314.3,216.07z"/>
<path d="M314.3,270.539H80.65c-5.523,0-10-4.477-10-10c0-5.523,4.477-10,10-10H314.3c5.523,0,10,4.477,10,10
	C324.3,266.063,319.823,270.539,314.3,270.539z"/>
<path d="M47.65,270.54c-0.65,0-1.31-0.07-1.95-0.2s-1.27-0.32-1.87-0.57c-0.61-0.25-1.191-0.56-1.73-0.92
	c-0.55-0.36-1.06-0.78-1.52-1.24c-1.86-1.86-2.93-4.44-2.93-7.07c0-0.65,0.07-1.31,0.2-1.96c0.12-0.63,0.32-1.26,0.57-1.87
	c0.25-0.6,0.56-1.18,0.92-1.72c0.36-0.55,0.78-1.06,1.24-1.52c0.46-0.46,0.97-0.88,1.52-1.24c0.54-0.37,1.12-0.67,1.73-0.92
	c0.6-0.25,1.23-0.45,1.87-0.57c3.24-0.66,6.7,0.41,9.02,2.73c0.46,0.46,0.88,0.97,1.24,1.52c0.36,0.54,0.67,1.12,0.92,1.72
	c0.25,0.61,0.45,1.24,0.57,1.87c0.13,0.65,0.2,1.31,0.2,1.96c0,2.63-1.07,5.21-2.93,7.07c-0.46,0.46-0.97,0.88-1.52,1.24
	c-0.54,0.36-1.12,0.67-1.72,0.92c-0.61,0.25-1.24,0.44-1.88,0.57C48.96,270.47,48.3,270.54,47.65,270.54z"/>
<g>
</g>
<g>
</g>
<g>
</g>
<g>
</g>
<g>
</g>
<g>
</g>
<g>
</g>
<g>
</g>
<g>
</g>
<g>
</g>
<g>
</g>
<g>
</g>
<g>
</g>
<g>
</g>
<g>
</g>
</svg>
