<?xml version="1.0" encoding="iso-8859-1"?>
<!-- Generator: Adobe Illustrator 19.0.0, SVG Export Plug-In . SVG Version: 6.00 Build 0)  -->
<svg version="1.1" id="Capa_1" xmlns="http://www.w3.org/2000/svg" xmlns:xlink="http://www.w3.org/1999/xlink" x="0px" y="0px"
	 viewBox="0 0 512.001 512.001" style="enable-background:new 0 0 512.001 512.001;" xml:space="preserve">
<g>
	<g>
		<path d="M476.349,28.672h-19.936c-19.658,0-35.651,15.993-35.651,35.651v58.196v298.215c0,3.506,1.807,6.585,4.538,8.37
			l32.728,49.724c1.85,2.81,4.989,4.502,8.353,4.502c3.364,0,6.503-1.692,8.353-4.502l32.729-49.724
			c2.73-1.785,4.538-4.865,4.538-8.37V122.519V64.323C512,44.665,496.007,28.672,476.349,28.672z M466.381,455.142l-16.065-24.408
			h32.13L466.381,455.142z M492,410.734h-51.238V132.519h15.619v213.26c0,5.523,4.477,10,10,10s10-4.477,10-10v-213.26H492V410.734z
			 M492,112.519h-51.238V64.323c0-8.63,7.021-15.651,15.651-15.651h19.936c8.63,0,15.651,7.021,15.651,15.651V112.519z"/>
	</g>
</g>
<g>
	<g>
		<path d="M476.19,376.801c-0.13-0.64-0.32-1.27-0.57-1.87c-0.26-0.61-0.56-1.19-0.92-1.73c-0.37-0.55-0.79-1.06-1.25-1.52
			c-0.46-0.46-0.97-0.88-1.52-1.25c-0.54-0.36-1.12-0.66-1.72-0.91c-0.61-0.25-1.24-0.45-1.88-0.57c-1.28-0.26-2.61-0.26-3.9,0
			c-0.64,0.12-1.27,0.32-1.87,0.57c-0.61,0.25-1.19,0.55-1.73,0.91c-0.55,0.37-1.06,0.79-1.52,1.25c-0.46,0.46-0.88,0.97-1.24,1.52
			c-0.36,0.54-0.67,1.12-0.92,1.73c-0.25,0.6-0.44,1.23-0.57,1.87s-0.2,1.3-0.2,1.95c0,0.65,0.07,1.31,0.2,1.95s0.32,1.27,0.57,1.87
			c0.25,0.61,0.56,1.19,0.92,1.73c0.36,0.55,0.78,1.06,1.24,1.52c0.46,0.46,0.97,0.88,1.52,1.24c0.539,0.36,1.12,0.67,1.73,0.92
			c0.6,0.25,1.23,0.45,1.87,0.57c0.64,0.13,1.3,0.2,1.95,0.2s1.31-0.07,1.95-0.2c0.64-0.12,1.27-0.32,1.88-0.57
			c0.6-0.25,1.18-0.56,1.72-0.92c0.55-0.36,1.06-0.78,1.52-1.24c0.46-0.46,0.88-0.97,1.25-1.52c0.36-0.54,0.66-1.12,0.92-1.73
			c0.25-0.6,0.44-1.23,0.57-1.87c0.13-0.64,0.19-1.3,0.19-1.95S476.32,377.441,476.19,376.801z"/>
	</g>
</g>
<g>
	<g>
		<path d="M353,29.013H10c-5.523,0-10,4.477-10,10v332.34v100.714v0.001c0,5.523,4.477,10,10,10h47.54h47.762H353
			c5.523,0,10-4.477,10-10V39.013C363,33.49,358.523,29.013,353,29.013z M95.302,462.066L95.302,462.066H67.54v-31.213
			c0-7.654,6.227-13.881,13.881-13.881s13.881,6.227,13.881,13.881V462.066z M142.84,462.066H115.3v-31.213
			c0-18.682-15.199-33.881-33.881-33.881S47.54,412.171,47.54,430.853v31.213H20v-86.369l61.42-57.327l61.42,57.328V462.066z
			 M303.833,462.066h-94.296v-43.851h94.296V462.066z M343,462.066h-19.168v-53.852c0-5.523-4.477-10-10-10H199.537
			c-5.523,0-10,4.477-10,10v53.852h-26.696V393.02c0.977,0.307,1.987,0.468,2.999,0.468c2.675,0,5.343-1.067,7.313-3.177
			c3.768-4.038,3.55-10.365-0.487-14.134l-84.422-78.796c-0.246-0.23-0.501-0.443-0.763-0.644c-0.1-0.077-0.206-0.142-0.308-0.214
			c-0.165-0.116-0.328-0.235-0.498-0.34c-0.129-0.08-0.262-0.147-0.394-0.221c-0.149-0.083-0.297-0.17-0.45-0.245
			c-0.144-0.071-0.292-0.13-0.439-0.194c-0.146-0.063-0.29-0.129-0.437-0.185c-0.152-0.057-0.306-0.104-0.46-0.154
			c-0.147-0.048-0.294-0.097-0.443-0.138c-0.155-0.042-0.312-0.075-0.469-0.109c-0.151-0.033-0.302-0.068-0.454-0.094
			c-0.156-0.027-0.312-0.045-0.469-0.065c-0.156-0.019-0.311-0.039-0.467-0.051c-0.155-0.012-0.31-0.017-0.465-0.021
			c-0.159-0.005-0.318-0.009-0.477-0.006c-0.153,0.003-0.304,0.011-0.457,0.021c-0.161,0.01-0.322,0.022-0.483,0.04
			c-0.15,0.017-0.3,0.039-0.45,0.062c-0.16,0.025-0.32,0.053-0.479,0.086c-0.149,0.031-0.298,0.066-0.446,0.104
			c-0.156,0.04-0.312,0.083-0.467,0.131c-0.148,0.046-0.296,0.095-0.442,0.148c-0.149,0.054-0.297,0.112-0.445,0.173
			c-0.148,0.061-0.295,0.126-0.44,0.194c-0.141,0.067-0.281,0.139-0.419,0.213c-0.146,0.077-0.29,0.157-0.432,0.242
			c-0.133,0.08-0.264,0.165-0.394,0.251c-0.14,0.093-0.279,0.187-0.416,0.288c-0.129,0.095-0.253,0.196-0.378,0.298
			c-0.129,0.105-0.257,0.211-0.382,0.323c-0.041,0.037-0.085,0.069-0.126,0.107L20,348.34V49.013h323V462.066z"/>
	</g>
</g>
<g>
	<g>
		<path d="M313.832,302.785H199.537c-5.523,0-10,4.477-10,10v62.609c0,5.523,4.477,10,10,10h114.296c5.523,0,10-4.477,10-10v-62.609
			C323.832,307.262,319.355,302.785,313.832,302.785z M303.832,365.395h-94.296v-42.609h94.296V365.395z"/>
	</g>
</g>
<g>
	<g>
		<path d="M276.995,74.779H86.005c-5.523,0-10,4.477-10,10v62.609c0,5.524,4.477,10.001,10,10.001h190.99c5.523,0,10-4.477,10-10
			v-62.61C286.995,79.256,282.518,74.779,276.995,74.779z M266.995,137.387H96.005V94.779h170.99V137.387z"/>
	</g>
</g>
<g>
	<g>
		<path d="M281.3,196.066H47.65c-5.523,0-10,4.477-10,10s4.477,10,10,10H281.3c5.523,0,10-4.477,10-10
			S286.823,196.066,281.3,196.066z"/>
	</g>
</g>
<g>
	<g>
		<path d="M324.1,204.11c-0.12-0.64-0.32-1.27-0.57-1.87s-0.56-1.18-0.92-1.72c-0.36-0.55-0.78-1.06-1.24-1.52
			c-0.46-0.47-0.97-0.88-1.52-1.25c-0.54-0.36-1.12-0.67-1.73-0.92c-0.6-0.25-1.23-0.44-1.87-0.57c-1.29-0.26-2.61-0.26-3.9,0
			c-0.64,0.13-1.27,0.32-1.87,0.57c-0.61,0.25-1.19,0.56-1.73,0.92c-0.55,0.37-1.06,0.78-1.52,1.25c-0.46,0.46-0.88,0.97-1.24,1.52
			c-0.36,0.54-0.67,1.12-0.92,1.72c-0.25,0.6-0.45,1.23-0.57,1.87c-0.13,0.65-0.2,1.3-0.2,1.96c0,0.65,0.07,1.31,0.2,1.95
			c0.12,0.64,0.32,1.27,0.57,1.87c0.25,0.6,0.56,1.19,0.92,1.73c0.36,0.55,0.78,1.06,1.24,1.52c0.46,0.46,0.97,0.88,1.52,1.24
			c0.54,0.36,1.12,0.67,1.73,0.92c0.6,0.25,1.23,0.44,1.87,0.57s1.3,0.2,1.95,0.2s1.31-0.07,1.95-0.2s1.27-0.32,1.87-0.57
			c0.61-0.25,1.19-0.56,1.73-0.92c0.55-0.36,1.06-0.78,1.52-1.24c0.461-0.46,0.88-0.97,1.24-1.52c0.36-0.54,0.67-1.13,0.92-1.73
			c0.25-0.6,0.45-1.23,0.57-1.87c0.13-0.64,0.2-1.3,0.2-1.95C324.3,205.41,324.23,204.761,324.1,204.11z"/>
	</g>
</g>
<g>
	<g>
		<path d="M314.3,250.54H80.65c-5.523,0-10,4.477-10,10c0,5.523,4.477,10,10,10H314.3c5.523,0,10-4.477,10-10
			C324.3,255.016,319.823,250.54,314.3,250.54z"/>
	</g>
</g>
<g>
	<g>
		<path d="M57.45,258.581c-0.12-0.63-0.32-1.26-0.57-1.87c-0.25-0.6-0.56-1.18-0.92-1.72c-0.36-0.55-0.78-1.06-1.24-1.52
			c-2.32-2.32-5.78-3.39-9.02-2.73c-0.64,0.12-1.27,0.32-1.87,0.57c-0.61,0.25-1.191,0.55-1.73,0.92c-0.55,0.36-1.06,0.78-1.52,1.24
			c-0.461,0.46-0.88,0.97-1.24,1.52c-0.36,0.54-0.67,1.12-0.92,1.72c-0.25,0.61-0.45,1.24-0.57,1.87c-0.13,0.65-0.2,1.31-0.2,1.96
			c0,2.63,1.07,5.21,2.93,7.07c0.46,0.46,0.97,0.88,1.52,1.24c0.54,0.36,1.12,0.67,1.73,0.92c0.6,0.25,1.23,0.44,1.87,0.57
			s1.3,0.2,1.95,0.2c0.65,0,1.31-0.07,1.95-0.2c0.64-0.13,1.27-0.32,1.88-0.57c0.6-0.25,1.18-0.56,1.72-0.92
			c0.55-0.36,1.06-0.78,1.52-1.24c1.86-1.86,2.93-4.44,2.93-7.07C57.65,259.891,57.58,259.23,57.45,258.581z"/>
	</g>
</g>
<g>
</g>
<g>
</g>
<g>
</g>
<g>
</g>
<g>
</g>
<g>
</g>
<g>
</g>
<g>
</g>
<g>
</g>
<g>
</g>
<g>
</g>
<g>
</g>
<g>
</g>
<g>
</g>
<g>
</g>
</svg>
